G04*
G04 #@! TF.GenerationSoftware,Altium Limited,Altium Designer,20.0.13 (296)*
G04*
G04 Layer_Color=8421504*
%FSLAX44Y44*%
%MOMM*%
G71*
G01*
G75*
%ADD29R,1.8000X2.2300*%
%ADD30R,1.3000X1.5500*%
%ADD31R,1.3500X1.1500*%
%ADD32R,1.4000X1.3000*%
%ADD33R,2.3000X4.5500*%
%ADD34R,0.7000X1.4000*%
%ADD35R,0.7000X1.2000*%
%ADD36R,1.0000X1.4000*%
%ADD37R,1.5000X1.9000*%
%ADD38R,1.2000X3.2000*%
%ADD39R,1.2000X1.2000*%
%ADD40R,0.8000X1.4000*%
%ADD41R,0.5800X1.1200*%
%ADD42R,1.1500X1.3500*%
%ADD43R,1.5500X0.6000*%
%ADD44R,1.2000X1.2000*%
%ADD45O,1.2700X0.7600*%
%ADD46R,0.2500X0.6500*%
%ADD47R,0.3500X0.6500*%
%ADD48R,8.3800X10.6600*%
%ADD49R,3.0000X1.1000*%
%ADD50O,0.7600X1.2700*%
%ADD51R,1.5000X1.6000*%
%ADD52R,2.2000X0.6000*%
%ADD53R,2.2000X3.5000*%
%ADD54R,0.9500X0.9000*%
%ADD55O,1.5500X0.6000*%
%ADD56R,1.3000X1.4000*%
%ADD57R,1.5500X1.3000*%
%ADD58R,0.7600X2.0000*%
%ADD59R,7.1000X5.8500*%
%ADD60R,1.6000X1.5000*%
%ADD61R,2.1000X5.6000*%
%ADD62R,3.2000X1.6000*%
%ADD63O,0.6000X1.5500*%
%ADD64R,0.5500X1.0000*%
%ADD65R,0.6250X0.8300*%
%ADD66R,0.6500X0.2500*%
%ADD67R,0.6500X0.3500*%
%ADD68O,2.1000X1.4000*%
%ADD69R,0.6350X1.2700*%
%ADD70R,1.4500X0.3556*%
%ADD71R,1.8000X0.6000*%
%ADD72R,0.9000X0.8000*%
%ADD73R,5.6000X2.1000*%
%ADD74R,0.9000X1.3000*%
%ADD75R,0.2300X1.5200*%
%ADD76R,0.3316X1.6216*%
%ADD77R,1.5200X0.2300*%
%ADD78R,5.4000X2.9000*%
%ADD79R,2.4500X2.1500*%
%ADD80R,2.2300X1.8000*%
D29*
X1446850Y727750D02*
D03*
X1417650D02*
D03*
D30*
X773600Y921000D02*
D03*
Y841500D02*
D03*
X728600Y921000D02*
D03*
Y841500D02*
D03*
X860000Y920000D02*
D03*
Y840500D02*
D03*
X815000Y920000D02*
D03*
Y840500D02*
D03*
X947650Y919750D02*
D03*
Y840250D02*
D03*
X902650Y919750D02*
D03*
Y840250D02*
D03*
D31*
X1036500Y992500D02*
D03*
Y975000D02*
D03*
X1014000Y1020250D02*
D03*
Y1002750D02*
D03*
X1036500Y1020000D02*
D03*
Y1037500D02*
D03*
X1105750Y182250D02*
D03*
Y199750D02*
D03*
X1570750Y703750D02*
D03*
Y721250D02*
D03*
X1571500Y662750D02*
D03*
Y680250D02*
D03*
X1377000Y247750D02*
D03*
Y265250D02*
D03*
X1581718Y1229690D02*
D03*
Y1247190D02*
D03*
X1523750Y1247250D02*
D03*
Y1264750D02*
D03*
X1447750Y1245500D02*
D03*
Y1263000D02*
D03*
X1372000Y1247250D02*
D03*
Y1264750D02*
D03*
X1220000Y1247250D02*
D03*
Y1264750D02*
D03*
X1144000Y1247250D02*
D03*
Y1264750D02*
D03*
X1068000Y1247250D02*
D03*
Y1264750D02*
D03*
X992000Y1247250D02*
D03*
Y1264750D02*
D03*
X850250Y473500D02*
D03*
Y456000D02*
D03*
X891750Y534250D02*
D03*
Y551750D02*
D03*
X1391250Y699250D02*
D03*
Y716750D02*
D03*
X1673750Y1354000D02*
D03*
Y1336500D02*
D03*
X1455500Y415000D02*
D03*
Y397500D02*
D03*
X948150Y801300D02*
D03*
Y818800D02*
D03*
X859400Y801550D02*
D03*
Y819050D02*
D03*
X771900Y800550D02*
D03*
Y818050D02*
D03*
X1126250Y163750D02*
D03*
Y181250D02*
D03*
X1762000Y1006750D02*
D03*
Y989250D02*
D03*
X1294000Y1264750D02*
D03*
Y1247250D02*
D03*
D32*
X1037000Y1072000D02*
D03*
Y1056000D02*
D03*
X1241000Y608250D02*
D03*
Y624250D02*
D03*
X1221000Y608250D02*
D03*
Y624250D02*
D03*
X1653250Y263050D02*
D03*
Y279050D02*
D03*
X1105750Y163250D02*
D03*
Y147250D02*
D03*
X1512000Y993100D02*
D03*
Y977100D02*
D03*
X1505000Y804250D02*
D03*
Y788250D02*
D03*
X1324750Y140750D02*
D03*
Y124750D02*
D03*
X828250Y473000D02*
D03*
Y457000D02*
D03*
X1003300Y731500D02*
D03*
Y747500D02*
D03*
X977500Y635000D02*
D03*
Y619000D02*
D03*
X957500Y635000D02*
D03*
Y619000D02*
D03*
X1505250Y748250D02*
D03*
Y764250D02*
D03*
X737500Y278750D02*
D03*
Y262750D02*
D03*
X1653250Y203800D02*
D03*
Y187800D02*
D03*
X982000Y748000D02*
D03*
Y732000D02*
D03*
X1544000Y678750D02*
D03*
Y662750D02*
D03*
D33*
X1720000Y1125750D02*
D03*
Y1049750D02*
D03*
X1632750Y598750D02*
D03*
Y522750D02*
D03*
X1634250Y653500D02*
D03*
Y729500D02*
D03*
D34*
X989000Y225700D02*
D03*
X1000000D02*
D03*
X1011000D02*
D03*
X1022000D02*
D03*
X1033000D02*
D03*
X1044000D02*
D03*
X1055000D02*
D03*
X1066000D02*
D03*
D35*
X1075500Y226700D02*
D03*
D36*
X970000Y225700D02*
D03*
D37*
X951000Y75700D02*
D03*
D38*
X1084000Y85700D02*
D03*
D39*
X1083000Y183700D02*
D03*
X1860250Y872050D02*
D03*
X1834250D02*
D03*
X1805500Y872550D02*
D03*
X1885750Y872050D02*
D03*
X1789000Y1178550D02*
D03*
X1839750Y1179300D02*
D03*
X1815000D02*
D03*
X1864500Y1178300D02*
D03*
X1716918Y1294890D02*
D03*
D40*
X1083000Y121700D02*
D03*
D41*
X1162800Y363350D02*
D03*
X1175500D02*
D03*
X1188200D02*
D03*
X1200900D02*
D03*
X1213600D02*
D03*
X1226300D02*
D03*
X1239000D02*
D03*
X1251700D02*
D03*
X1162800Y416150D02*
D03*
X1175500D02*
D03*
X1188200D02*
D03*
X1200900D02*
D03*
X1213600D02*
D03*
X1226300D02*
D03*
X1239000D02*
D03*
X1251700D02*
D03*
D42*
X1447500Y366750D02*
D03*
X1465000D02*
D03*
X1419500Y333750D02*
D03*
X1402000D02*
D03*
X1712125Y290625D02*
D03*
X1694625D02*
D03*
X1711250Y313000D02*
D03*
X1693750D02*
D03*
X909650Y815300D02*
D03*
X927150D02*
D03*
X819650Y815800D02*
D03*
X837150D02*
D03*
X726400Y814800D02*
D03*
X743900D02*
D03*
X789250Y435750D02*
D03*
X806750D02*
D03*
X1415150Y673950D02*
D03*
X1397650D02*
D03*
X812000Y403250D02*
D03*
X829500D02*
D03*
X1517000Y143800D02*
D03*
X1534500D02*
D03*
X1489500Y518000D02*
D03*
X1507000D02*
D03*
X1424500Y779250D02*
D03*
X1442000D02*
D03*
D43*
X1402000Y311950D02*
D03*
Y299250D02*
D03*
Y286550D02*
D03*
Y273850D02*
D03*
Y261150D02*
D03*
Y248450D02*
D03*
Y235750D02*
D03*
X1456000Y311950D02*
D03*
Y299250D02*
D03*
Y286550D02*
D03*
Y273850D02*
D03*
Y261150D02*
D03*
Y248450D02*
D03*
Y235750D02*
D03*
D44*
X1421000Y367750D02*
D03*
X1400000D02*
D03*
X1860250Y843450D02*
D03*
X1834250D02*
D03*
X1805500Y843950D02*
D03*
X1885750Y843450D02*
D03*
X1789000Y1149950D02*
D03*
X1839750Y1150700D02*
D03*
X1815000D02*
D03*
X1864500Y1149700D02*
D03*
X1716918Y1266290D02*
D03*
D45*
X1654500Y941350D02*
D03*
Y928650D02*
D03*
X1695500Y941350D02*
D03*
Y928650D02*
D03*
X1337000Y396850D02*
D03*
Y409550D02*
D03*
X1296000Y396850D02*
D03*
Y409550D02*
D03*
X1296000Y384150D02*
D03*
Y371450D02*
D03*
X1337000D02*
D03*
Y384150D02*
D03*
X1292500Y294850D02*
D03*
Y307550D02*
D03*
X1333500D02*
D03*
Y294850D02*
D03*
X1333500Y269450D02*
D03*
Y282150D02*
D03*
X1292500Y269450D02*
D03*
Y282150D02*
D03*
D46*
X864250Y368000D02*
D03*
X859250D02*
D03*
Y357000D02*
D03*
X864250D02*
D03*
D47*
X869750Y368000D02*
D03*
X853750D02*
D03*
Y357000D02*
D03*
X869750D02*
D03*
D48*
X1843200Y693800D02*
D03*
D49*
X1740000Y659920D02*
D03*
Y676940D02*
D03*
Y693960D02*
D03*
Y710980D02*
D03*
Y728000D02*
D03*
D50*
X1552400Y926750D02*
D03*
X1565100D02*
D03*
X1552400Y967750D02*
D03*
X1565100D02*
D03*
X1201850Y894750D02*
D03*
X1189150D02*
D03*
X1201850Y853750D02*
D03*
X1189150D02*
D03*
D51*
X1446250Y516750D02*
D03*
X1410250D02*
D03*
X1429250Y399250D02*
D03*
X1393250D02*
D03*
X1636250Y1233250D02*
D03*
X1672250D02*
D03*
X860250Y401500D02*
D03*
X896250D02*
D03*
D52*
X1540750Y815650D02*
D03*
Y802950D02*
D03*
Y790250D02*
D03*
Y777550D02*
D03*
Y764850D02*
D03*
D53*
X1602750Y790250D02*
D03*
D54*
X1712500Y339750D02*
D03*
Y371250D02*
D03*
X1710250Y231750D02*
D03*
Y263250D02*
D03*
D55*
X1434200Y993100D02*
D03*
Y980400D02*
D03*
Y967700D02*
D03*
Y955000D02*
D03*
Y942300D02*
D03*
Y929600D02*
D03*
Y916900D02*
D03*
X1488200Y993100D02*
D03*
Y980400D02*
D03*
Y967700D02*
D03*
Y955000D02*
D03*
Y942300D02*
D03*
Y929600D02*
D03*
Y916900D02*
D03*
D56*
X1408750Y994000D02*
D03*
X1392750D02*
D03*
X1452800Y673450D02*
D03*
X1436800D02*
D03*
X1129750Y751500D02*
D03*
X1113750D02*
D03*
X1440800Y757450D02*
D03*
X1424800D02*
D03*
X1129500Y407250D02*
D03*
X1113500D02*
D03*
X1031500D02*
D03*
X1047500D02*
D03*
X1463250Y164000D02*
D03*
X1447250D02*
D03*
X1105250Y361200D02*
D03*
X1089250D02*
D03*
X1034000Y749250D02*
D03*
X1050000D02*
D03*
X1115188Y731520D02*
D03*
X1131188D02*
D03*
X1058000Y482000D02*
D03*
X1042000D02*
D03*
X1057400Y502900D02*
D03*
X1041400D02*
D03*
X1033400Y728750D02*
D03*
X1049400D02*
D03*
D57*
X761250Y431750D02*
D03*
X681750D02*
D03*
X761250Y476750D02*
D03*
X681750D02*
D03*
D58*
X1457200Y644325D02*
D03*
X1444500D02*
D03*
X1431800D02*
D03*
X1419100D02*
D03*
X1406400D02*
D03*
D59*
X1431800Y576575D02*
D03*
D60*
X1744000Y960000D02*
D03*
Y924000D02*
D03*
D61*
X1613250Y183800D02*
D03*
Y278800D02*
D03*
D62*
X1798500Y361000D02*
D03*
X1748500D02*
D03*
X1798500Y433000D02*
D03*
X1748500D02*
D03*
D63*
X1068650Y280250D02*
D03*
X1081350D02*
D03*
X1094050D02*
D03*
X1106750D02*
D03*
X1119450D02*
D03*
X1132150D02*
D03*
X1144850D02*
D03*
X1068650Y334250D02*
D03*
X1081350D02*
D03*
X1094050D02*
D03*
X1106750D02*
D03*
X1119450D02*
D03*
X1132150D02*
D03*
X1144850D02*
D03*
D64*
X789750Y460750D02*
D03*
X799250D02*
D03*
X808750D02*
D03*
X789750Y487750D02*
D03*
X808750D02*
D03*
D65*
X834625Y432250D02*
D03*
X856875D02*
D03*
D66*
X950750Y320500D02*
D03*
Y325500D02*
D03*
X939750D02*
D03*
Y320500D02*
D03*
D67*
X950750Y315000D02*
D03*
Y331000D02*
D03*
X939750D02*
D03*
Y315000D02*
D03*
D68*
X1685218Y1275740D02*
D03*
Y1301140D02*
D03*
X1594218Y1275740D02*
D03*
Y1301140D02*
D03*
D69*
X737300Y316900D02*
D03*
X750000D02*
D03*
X762700D02*
D03*
X775400D02*
D03*
X788100D02*
D03*
X800800D02*
D03*
X813500D02*
D03*
X826200D02*
D03*
X737300Y374100D02*
D03*
X750000D02*
D03*
X762700D02*
D03*
X775400D02*
D03*
X788100D02*
D03*
X800800D02*
D03*
X813500D02*
D03*
X826200D02*
D03*
D70*
X913750Y312925D02*
D03*
Y319475D02*
D03*
Y326025D02*
D03*
Y332575D02*
D03*
X854750Y312925D02*
D03*
Y319475D02*
D03*
Y326025D02*
D03*
Y332575D02*
D03*
D71*
X1834500Y417750D02*
D03*
Y401750D02*
D03*
D72*
X1694218Y1353590D02*
D03*
Y1334590D02*
D03*
X1714218Y1344090D02*
D03*
D73*
X1128000Y443500D02*
D03*
X1033000D02*
D03*
D74*
X957000Y732000D02*
D03*
X938000D02*
D03*
D75*
X1032200Y697200D02*
D03*
X1037200D02*
D03*
X1042200D02*
D03*
X1047200D02*
D03*
X1052200D02*
D03*
X1057200D02*
D03*
X1072200D02*
D03*
X1077200D02*
D03*
X1082200D02*
D03*
X1087200D02*
D03*
X1092200D02*
D03*
X1097200D02*
D03*
X1102200D02*
D03*
X1107200D02*
D03*
X1112200D02*
D03*
X1117200D02*
D03*
X1122200D02*
D03*
X1127200D02*
D03*
X1132200D02*
D03*
X1137200D02*
D03*
X1142200D02*
D03*
X1147200D02*
D03*
X1152200D02*
D03*
Y537200D02*
D03*
X1147200D02*
D03*
X1142200D02*
D03*
X1137200D02*
D03*
X1132200D02*
D03*
X1127200D02*
D03*
X1122200D02*
D03*
X1117200D02*
D03*
X1112200D02*
D03*
X1107200D02*
D03*
X1102200D02*
D03*
X1097200D02*
D03*
X1092200D02*
D03*
X1087200D02*
D03*
X1082200D02*
D03*
X1077200D02*
D03*
X1072200D02*
D03*
X1067200D02*
D03*
X1062200D02*
D03*
X1057200D02*
D03*
X1052200D02*
D03*
X1047200D02*
D03*
X1042200D02*
D03*
X1037200D02*
D03*
X1032200D02*
D03*
D76*
X1062200Y697200D02*
D03*
X1067200D02*
D03*
D77*
X1172200Y677200D02*
D03*
Y672200D02*
D03*
Y667200D02*
D03*
Y662200D02*
D03*
Y657200D02*
D03*
Y652200D02*
D03*
Y647200D02*
D03*
Y642200D02*
D03*
Y637200D02*
D03*
Y632200D02*
D03*
Y627200D02*
D03*
Y622200D02*
D03*
Y617200D02*
D03*
Y612200D02*
D03*
Y607200D02*
D03*
Y602200D02*
D03*
Y597200D02*
D03*
Y592200D02*
D03*
Y587200D02*
D03*
Y582200D02*
D03*
Y577200D02*
D03*
Y572200D02*
D03*
Y567200D02*
D03*
Y562200D02*
D03*
Y557200D02*
D03*
X1012200D02*
D03*
Y562200D02*
D03*
Y567200D02*
D03*
Y572200D02*
D03*
Y577200D02*
D03*
Y582200D02*
D03*
Y587200D02*
D03*
Y592200D02*
D03*
Y597200D02*
D03*
Y602200D02*
D03*
Y607200D02*
D03*
Y612200D02*
D03*
Y617200D02*
D03*
Y622200D02*
D03*
Y627200D02*
D03*
Y632200D02*
D03*
Y637200D02*
D03*
Y642200D02*
D03*
Y647200D02*
D03*
Y652200D02*
D03*
Y657200D02*
D03*
Y662200D02*
D03*
Y667200D02*
D03*
Y672200D02*
D03*
Y677200D02*
D03*
D78*
X1759750Y615250D02*
D03*
Y518250D02*
D03*
D79*
X1669750Y779250D02*
D03*
X1712750D02*
D03*
D80*
X1495250Y643850D02*
D03*
Y614650D02*
D03*
M02*
