G04*
G04 #@! TF.GenerationSoftware,Altium Limited,Altium Designer,20.0.13 (296)*
G04*
G04 Layer_Color=16711935*
%FSLAX44Y44*%
%MOMM*%
G71*
G01*
G75*
%ADD92R,1.4000X1.4000*%
%ADD97R,1.4000X1.4000*%
%ADD134C,1.4000*%
G04:AMPARAMS|DCode=135|XSize=2.3mm|YSize=1.7mm|CornerRadius=0.475mm|HoleSize=0mm|Usage=FLASHONLY|Rotation=270.000|XOffset=0mm|YOffset=0mm|HoleType=Round|Shape=RoundedRectangle|*
%AMROUNDEDRECTD135*
21,1,2.3000,0.7500,0,0,270.0*
21,1,1.3500,1.7000,0,0,270.0*
1,1,0.9500,-0.3750,-0.6750*
1,1,0.9500,-0.3750,0.6750*
1,1,0.9500,0.3750,0.6750*
1,1,0.9500,0.3750,-0.6750*
%
%ADD135ROUNDEDRECTD135*%
G04:AMPARAMS|DCode=136|XSize=2.3mm|YSize=1.7mm|CornerRadius=0.475mm|HoleSize=0mm|Usage=FLASHONLY|Rotation=0.000|XOffset=0mm|YOffset=0mm|HoleType=Round|Shape=RoundedRectangle|*
%AMROUNDEDRECTD136*
21,1,2.3000,0.7500,0,0,0.0*
21,1,1.3500,1.7000,0,0,0.0*
1,1,0.9500,0.6750,-0.3750*
1,1,0.9500,-0.6750,-0.3750*
1,1,0.9500,-0.6750,0.3750*
1,1,0.9500,0.6750,0.3750*
%
%ADD136ROUNDEDRECTD136*%
%ADD137R,1.9000X1.9000*%
%ADD138C,1.9000*%
%ADD139O,2.7000X1.9500*%
%ADD140O,2.2000X1.8000*%
%ADD141R,2.2000X1.8000*%
%ADD142C,7.6000*%
%ADD143C,3.2000*%
%ADD144C,1.8270*%
%ADD145C,1.8016*%
%ADD146R,1.7000X1.7000*%
%ADD147C,1.7000*%
%ADD148C,2.1800*%
%ADD149C,2.1350*%
%ADD150R,2.1800X2.1800*%
%ADD151R,1.9000X1.9000*%
%ADD152C,1.7240*%
%ADD153C,2.7000*%
%ADD154C,1.5000*%
%ADD155C,1.9780*%
%ADD156O,1.8000X2.2000*%
%ADD157R,1.8000X2.2000*%
%ADD158C,1.3000*%
%ADD159R,1.3000X1.3000*%
%ADD160C,3.4000*%
%ADD161C,0.8000*%
D92*
X1072300Y1098000D02*
D03*
D97*
X316350Y54000D02*
D03*
D134*
X968000Y1056600D02*
D03*
Y1082000D02*
D03*
Y1107400D02*
D03*
X1072300Y1072600D02*
D03*
Y1047200D02*
D03*
Y1021800D02*
D03*
Y996400D02*
D03*
Y971000D02*
D03*
X1291300Y1072600D02*
D03*
Y1047200D02*
D03*
Y1021800D02*
D03*
Y996400D02*
D03*
Y971000D02*
D03*
Y945600D02*
D03*
X468750Y54000D02*
D03*
X443350D02*
D03*
X417950D02*
D03*
X392550D02*
D03*
X367150D02*
D03*
X341750D02*
D03*
X1158950Y72050D02*
D03*
X1184350D02*
D03*
X1209750D02*
D03*
X1235150D02*
D03*
X1260550D02*
D03*
X1158950Y224450D02*
D03*
X1184350D02*
D03*
X1209750D02*
D03*
X1235150D02*
D03*
X1260550D02*
D03*
X1524700Y1316000D02*
D03*
X1499300D02*
D03*
X1447800Y1315700D02*
D03*
X1422400D02*
D03*
X1371600D02*
D03*
X1346200D02*
D03*
X1295400D02*
D03*
X1270000D02*
D03*
X1219200D02*
D03*
X1193800D02*
D03*
X1143000D02*
D03*
X1117600D02*
D03*
X1066800D02*
D03*
X1041400D02*
D03*
X990600D02*
D03*
X965200D02*
D03*
X728000Y758500D02*
D03*
Y693500D02*
D03*
D135*
X1853600Y569260D02*
D03*
X1913600D02*
D03*
D136*
X1883600Y616260D02*
D03*
D137*
X1383400Y1047200D02*
D03*
D138*
Y1072600D02*
D03*
Y1098000D02*
D03*
Y1123400D02*
D03*
X1358000Y1047200D02*
D03*
Y1072600D02*
D03*
Y1098000D02*
D03*
Y1123400D02*
D03*
X1631718Y1344440D02*
D03*
X1737300Y862000D02*
D03*
X1403900Y147450D02*
D03*
X1378500D02*
D03*
X1353100D02*
D03*
X1403900Y122050D02*
D03*
X1378500D02*
D03*
X1675700Y440250D02*
D03*
X137450Y775250D02*
D03*
D139*
X1962000Y1333400D02*
D03*
Y1308000D02*
D03*
Y1282600D02*
D03*
Y866700D02*
D03*
Y841300D02*
D03*
Y684700D02*
D03*
Y659300D02*
D03*
Y1188700D02*
D03*
Y1163300D02*
D03*
D140*
X77146Y458400D02*
D03*
Y483800D02*
D03*
Y509200D02*
D03*
Y534600D02*
D03*
Y560000D02*
D03*
Y585400D02*
D03*
Y610800D02*
D03*
Y636200D02*
D03*
X52000Y458400D02*
D03*
Y483800D02*
D03*
Y509200D02*
D03*
Y534600D02*
D03*
Y560000D02*
D03*
Y585400D02*
D03*
Y610800D02*
D03*
X51997Y402200D02*
D03*
Y376800D02*
D03*
Y351400D02*
D03*
Y326000D02*
D03*
Y300600D02*
D03*
Y275200D02*
D03*
Y249800D02*
D03*
Y224400D02*
D03*
X77143Y402200D02*
D03*
Y376800D02*
D03*
Y351400D02*
D03*
Y326000D02*
D03*
Y300600D02*
D03*
Y275200D02*
D03*
Y249800D02*
D03*
D141*
X52000Y636200D02*
D03*
X77143Y224400D02*
D03*
D142*
X1943100Y57250D02*
D03*
X1943100Y769600D02*
D03*
X63500Y57250D02*
D03*
D143*
X1894000Y253300D02*
D03*
Y373700D02*
D03*
D144*
X1866900Y326000D02*
D03*
X1847000D02*
D03*
D145*
Y301000D02*
D03*
X1866900D02*
D03*
D146*
X796750Y267750D02*
D03*
D147*
Y67750D02*
D03*
D148*
X1889718Y1366440D02*
D03*
Y1246440D02*
D03*
X1767718D02*
D03*
D149*
X1747718Y1306440D02*
D03*
D150*
X1767718Y1366440D02*
D03*
D151*
X1606318Y1344440D02*
D03*
X1762700Y862000D02*
D03*
X1353100Y122050D02*
D03*
X1650300Y440250D02*
D03*
X112050Y775250D02*
D03*
D152*
X861750Y606400D02*
D03*
Y581000D02*
D03*
Y555600D02*
D03*
Y530200D02*
D03*
D153*
X232374Y817000D02*
D03*
Y867000D02*
D03*
Y917000D02*
D03*
D154*
X1794763Y1103898D02*
D03*
Y1078498D02*
D03*
Y1053098D02*
D03*
Y1027698D02*
D03*
Y1002298D02*
D03*
Y976898D02*
D03*
Y951498D02*
D03*
Y926098D02*
D03*
X1845563Y1091198D02*
D03*
Y1065798D02*
D03*
Y1040398D02*
D03*
Y1014998D02*
D03*
Y989598D02*
D03*
Y964198D02*
D03*
Y938798D02*
D03*
D155*
X1916200Y922263D02*
D03*
Y1107200D02*
D03*
D156*
X403600Y1338250D02*
D03*
X429000D02*
D03*
X454400D02*
D03*
X479800D02*
D03*
X505200D02*
D03*
X530600D02*
D03*
X556000D02*
D03*
X581400D02*
D03*
X225800D02*
D03*
X246882Y1336726D02*
D03*
X276600Y1338250D02*
D03*
X302000D02*
D03*
X327400D02*
D03*
X352800D02*
D03*
X378200D02*
D03*
D157*
X200400D02*
D03*
D158*
X1486150Y392100D02*
D03*
Y366700D02*
D03*
Y341300D02*
D03*
Y315900D02*
D03*
Y290500D02*
D03*
Y265100D02*
D03*
Y239700D02*
D03*
Y214300D02*
D03*
Y188900D02*
D03*
Y163500D02*
D03*
X1562350Y392100D02*
D03*
Y366700D02*
D03*
Y341300D02*
D03*
Y315900D02*
D03*
Y290500D02*
D03*
Y265100D02*
D03*
Y239700D02*
D03*
Y214300D02*
D03*
Y188900D02*
D03*
D159*
Y163500D02*
D03*
D160*
X54000Y1352000D02*
D03*
D161*
X1074166Y512064D02*
D03*
X1087200Y495848D02*
D03*
X997154Y621742D02*
D03*
X991750Y613750D02*
D03*
X1080000Y503000D02*
D03*
X1092000Y488000D02*
D03*
X1113000Y489000D02*
D03*
X1119000Y496000D02*
D03*
X1124105Y504855D02*
D03*
X1223000Y538000D02*
D03*
X1233000Y533000D02*
D03*
X1243000D02*
D03*
X1253000Y531000D02*
D03*
X1261848Y529000D02*
D03*
X1213000Y538000D02*
D03*
X1203000Y537000D02*
D03*
X1376000Y817000D02*
D03*
X1385000Y617000D02*
D03*
X1026750Y339500D02*
D03*
X940346Y511404D02*
D03*
X894750Y576500D02*
D03*
X1189000Y923750D02*
D03*
X1176000Y924750D02*
D03*
X1164750Y923750D02*
D03*
X1309500Y869750D02*
D03*
X1290000Y869500D02*
D03*
X1269875Y869750D02*
D03*
X1253500Y892500D02*
D03*
X1236500Y920000D02*
D03*
X1228250Y906750D02*
D03*
X1424000Y801250D02*
D03*
X806750Y617500D02*
D03*
X819250Y625835D02*
D03*
X831250Y635000D02*
D03*
X820000Y641500D02*
D03*
X831750Y651250D02*
D03*
X926250Y659500D02*
D03*
X938500Y666250D02*
D03*
X927000Y672750D02*
D03*
X775750Y493250D02*
D03*
X932000Y955000D02*
D03*
X245750Y405250D02*
D03*
X219000Y378750D02*
D03*
X193500Y347250D02*
D03*
X173500Y332000D02*
D03*
X161000Y318500D02*
D03*
X159000Y303250D02*
D03*
X747000Y491250D02*
D03*
X629375Y421875D02*
D03*
X606786Y449035D02*
D03*
X598000Y451750D02*
D03*
X598250Y462250D02*
D03*
X594250Y471500D02*
D03*
X602632Y432118D02*
D03*
X612125Y431125D02*
D03*
X611250Y418500D02*
D03*
X648500Y716000D02*
D03*
X644750Y706000D02*
D03*
X689000Y697000D02*
D03*
X909500Y679750D02*
D03*
X574500Y330000D02*
D03*
X593250Y335750D02*
D03*
X591750Y322000D02*
D03*
X605250Y322500D02*
D03*
X608250Y308500D02*
D03*
X622000Y307000D02*
D03*
X616250Y282250D02*
D03*
X663000Y786000D02*
D03*
X288500Y1200500D02*
D03*
X282750Y1220000D02*
D03*
X282000Y1240750D02*
D03*
X454400Y1110400D02*
D03*
X497454Y968604D02*
D03*
X482250Y1009000D02*
D03*
X477000Y1033250D02*
D03*
X462500Y1064550D02*
D03*
X1177000Y517000D02*
D03*
X1907500Y872250D02*
D03*
X1831250Y894500D02*
D03*
X1216500Y478250D02*
D03*
X1160250Y400500D02*
D03*
X1177500Y401000D02*
D03*
X1144750Y479000D02*
D03*
X1064000Y583250D02*
D03*
X1052250Y576750D02*
D03*
X1045000Y585000D02*
D03*
X1031000Y597750D02*
D03*
X1037050Y590779D02*
D03*
X1122250Y630250D02*
D03*
X1102000Y721250D02*
D03*
X1094500Y731500D02*
D03*
X1086250Y736250D02*
D03*
X1077500Y731500D02*
D03*
X1099000Y637500D02*
D03*
X1084750Y760750D02*
D03*
X1366250Y397750D02*
D03*
X1210250Y389250D02*
D03*
X1267500Y388500D02*
D03*
X1080000Y145000D02*
D03*
X921000Y148000D02*
D03*
X1074250Y350750D02*
D03*
X942750Y189000D02*
D03*
X1022750Y209750D02*
D03*
X1235250Y266250D02*
D03*
X1235000Y278500D02*
D03*
X1472500Y319500D02*
D03*
X1474500Y276250D02*
D03*
X1445250Y625750D02*
D03*
X1101500Y591275D02*
D03*
X1602000Y635000D02*
D03*
X1679000Y607000D02*
D03*
X1056750Y177000D02*
D03*
X1050000Y521629D02*
D03*
X1019000Y502500D02*
D03*
X923250Y381500D02*
D03*
X1078000Y441250D02*
D03*
X897500Y366750D02*
D03*
X1134750Y479250D02*
D03*
X910500Y374000D02*
D03*
X838000Y378750D02*
D03*
X920250Y400750D02*
D03*
X774250Y400500D02*
D03*
X662250Y419000D02*
D03*
X711250Y269750D02*
D03*
X716750Y311250D02*
D03*
X839000Y311250D02*
D03*
X884000Y362750D02*
D03*
X720750Y365250D02*
D03*
X1011000Y201500D02*
D03*
X1163500Y350000D02*
D03*
X1283175Y384575D02*
D03*
X1188250Y323500D02*
D03*
X1200250Y325500D02*
D03*
X1165500Y290500D02*
D03*
X1183500Y264250D02*
D03*
X924000Y743000D02*
D03*
X921000Y845000D02*
D03*
X1052000Y353750D02*
D03*
X1044000Y204500D02*
D03*
X1068500Y360750D02*
D03*
X1263750Y364000D02*
D03*
X1201000Y431500D02*
D03*
X1497250Y724750D02*
D03*
X1392500Y978000D02*
D03*
X1412000Y916750D02*
D03*
X1565500Y912250D02*
D03*
X1527750Y976750D02*
D03*
X1565250Y986750D02*
D03*
X889500Y798500D02*
D03*
X816500Y791250D02*
D03*
X1608000Y474000D02*
D03*
X1747750Y239750D02*
D03*
X1415500Y955000D02*
D03*
X1506000Y955500D02*
D03*
X1463150Y937650D02*
D03*
X1362750Y815500D02*
D03*
X1769000Y331500D02*
D03*
X1435750Y244750D02*
D03*
X1459500Y324500D02*
D03*
X1114500Y265300D02*
D03*
X1322000Y98000D02*
D03*
X1085500Y560750D02*
D03*
X1104304Y485024D02*
D03*
X1074250Y480000D02*
D03*
X81000Y700000D02*
D03*
X920500Y606250D02*
D03*
X1695000Y1234250D02*
D03*
X1693500Y1322500D02*
D03*
X1739500Y1095500D02*
D03*
X1817750Y1066000D02*
D03*
X1819750Y802500D02*
D03*
X1908750Y843250D02*
D03*
X1711000Y708000D02*
D03*
X1703750Y530500D02*
D03*
X1699750Y676750D02*
D03*
X1648000Y691750D02*
D03*
X1809750Y1329750D02*
D03*
X1324065Y277764D02*
D03*
X1348500Y267500D02*
D03*
X1191500Y281000D02*
D03*
X1419713Y293037D02*
D03*
X1362750Y353500D02*
D03*
X1387000Y289750D02*
D03*
X1357250Y378750D02*
D03*
X1048250Y551750D02*
D03*
X1348000Y329750D02*
D03*
X1708250Y906750D02*
D03*
X950250Y545500D02*
D03*
X991750Y545750D02*
D03*
X1032500Y678500D02*
D03*
X1004000Y524500D02*
D03*
X951250Y602250D02*
D03*
X1040500Y670750D02*
D03*
X1057500Y660500D02*
D03*
X1051750Y670000D02*
D03*
X1129250Y359250D02*
D03*
X1100750Y623750D02*
D03*
X1164750Y762500D02*
D03*
X1111250Y713000D02*
D03*
X1144000Y650000D02*
D03*
X1146250Y663750D02*
D03*
X1153750Y677750D02*
D03*
X1126000Y673000D02*
D03*
X1131500Y820500D02*
D03*
X1086500Y813500D02*
D03*
X1093750Y805000D02*
D03*
X1105500Y798250D02*
D03*
X1113500Y790500D02*
D03*
X1121250Y782750D02*
D03*
X1131000Y776250D02*
D03*
X549000Y470000D02*
D03*
X547250Y481750D02*
D03*
X544000Y496500D02*
D03*
X1032500Y612250D02*
D03*
X1073250Y630000D02*
D03*
X1071250Y640000D02*
D03*
X1068500Y649750D02*
D03*
X1056000Y650000D02*
D03*
M02*
