M48
;Layer_Color=9474304
;FILE_FORMAT=4:4
METRIC,LZ
;TYPE=PLATED
T1F00S00C0.3000
T2F00S00C0.5000
T3F00S00C0.5500
T4F00S00C0.6000
T5F00S00C0.6500
T6F00S00C0.6600
T7F00S00C0.7000
T8F00S00C0.8000
T9F00S00C0.8890
T10F00S00C0.9000
T11F00S00C0.9200
T13F00S00C1.1000
T14F00S00C1.1430
T15F00S00C1.2200
T16F00S00C1.2900
T17F00S00C1.3200
T18F00S00C2.3000
T19F00S00C3.2000
;TYPE=NON_PLATED
T20F00S00C3.2000
%
T01
X0061625Y0028225
X0071125Y0026975
X0094275Y00189
X00932Y00148
X00921
X01011Y002015
X0102275Y0020975
X01044Y002045
X0105675Y00177
X0108Y00145
Y00128
X011145Y002653
X011835Y0026425
X011655Y002905
X011915Y00281
X01235Y002785
X0123525Y0026625
X01324065Y00277764
X013485Y002675
X01387Y0028975
X01419713Y00293037
X0143575Y0024475
X014745Y0027625
X01468Y00145
X01322Y00098
Y00088
X0174775Y0023975
X01769Y003315
X0170375Y005305
X01679Y00594
Y00607
X01617Y00635
X01602
X01591
X01648Y0069175
X0169975Y0067675
X01608Y00474
X014725Y003195
X014595Y003245
X01348Y0032975
X0136275Y003535
X0135725Y0037875
X0136625Y0039775
X01283175Y00384575
X012675Y003885
X0126375Y00364
X0121025Y0038925
X01201Y004315
X012165Y0047825
X01213Y00538
X01223
X01233Y00533
X01243
X01253Y00531
X01261848Y00529
X01203Y00537
X0120025Y003255
X01385Y00617
X0144525Y0062575
X01144Y0065
X0114625Y0066375
X0115375Y0067775
X01126Y00673
X0112225Y0063025
X0110075Y0062375
X01099Y006375
X0107125Y0064
X0107325Y0063
X010685Y0064975
X01056Y0065
X010575Y006605
X0105175Y0067
X010405Y0067075
X010325Y006785
Y0061225
X01031Y0059775
X0103705Y00590779
X01045Y00585
X0105225Y0057675
X01064Y0058325
X010855Y0056075
X0104825Y0055175
X0105Y00521629
X01074166Y00512064
X0108Y00503
X010872Y00495848
X01092Y00488
X01104304Y00485024
X01113Y00489
X01119Y00496
X01124105Y00504855
X0113475Y0047925
X0114475Y00479
X01177Y00517
X011775Y00401
X0116025Y004005
X011635Y0035
X0112925Y0035925
X010685Y0036075
X0107425Y0035075
X01052Y0035375
X0102675Y003395
X0092325Y003815
X009105Y00374
X008975Y0036675
X00884Y0036275
X00838Y0037875
X00839Y0031125
X0092025Y0040075
X00940346Y00511404
X0095025Y005455
X0099175Y0054575
X01004Y005245
X01019Y005025
X0107425Y0048
X01078Y0044125
X011015Y00591275
X0099175Y0061375
X00997154Y00621742
X0095125Y0060225
X009205Y0060625
X0089475Y005765
X0092625Y006595
X00927Y0067275
X009385Y0066625
X009095Y0067975
X0083175Y0065125
X0083125Y00635
X0082Y006415
X0081925Y00625835
X0080675Y006175
X0118825Y003235
X0071675Y0031125
X0072075Y0036525
X0077425Y004005
X0077575Y0049325
X00747Y0049125
X0066225Y00419
X00629375Y00421875
X0061125Y004185
X00612125Y00431125
X00602632Y00432118
X00606786Y00449035
X00598Y0045175
X0059825Y0046225
X0059425Y004715
X00549Y0047
X0054725Y0048175
X00544Y004965
X005745Y0033
X0059325Y0033575
X0059175Y00322
X0060525Y003225
X0060825Y003085
X00622Y00307
X00689Y00697
X00081Y00683
X00219Y0037875
X0024575Y0040525
X001935Y0034725
X001735Y00332
X00161Y003185
X00159Y0030325
X00081Y007
X00186Y00804
X00206Y00791
X00663Y00786
X00662Y00799
X006485Y00716
X0064475Y00706
X00497454Y00968604
X0048225Y01009
X00477Y0103325
X004625Y0106455
X00932Y00955
X00943
X00921Y00845
X00914Y00835
X008895Y007985
X008165Y0079125
X00915Y00736
X00924Y00743
X010775Y007315
X0108625Y0073625
X010945Y007315
X01102Y0072125
X0111125Y00713
X0108475Y0076075
X0109375Y00805
X010865Y008135
X011055Y0079825
X011135Y007905
X0112125Y0078275
X01131Y0077625
X011315Y008205
X0116475Y007625
Y0092375
X01176Y0092475
X01189Y0092375
X012365Y0092
X0122825Y0090675
X012535Y008925
X01269875Y0086975
X0129Y008695
X013095Y0086975
X0136275Y008155
X01376Y00817
X01424Y0080125
X01412Y0091675
X014155Y00955
X013925Y00978
X0146315Y0093765
X01506Y009555
X0152775Y0097675
X0156525Y0098675
X015655Y0091225
X0149725Y0072475
X01711Y00708
X0170825Y0090675
X0183125Y008945
X019075Y0087225
X0190875Y0084325
X0181975Y008025
X0181775Y01066
X017395Y010955
X01695Y0123425
X016935Y013225
X0180975Y0132975
X004544Y011104
X002885Y012005
X0028275Y0122
X00282Y0124075
T02
X0148615Y001635
Y001889
Y002143
Y002397
Y002651
Y002905
X0156235
Y002651
Y002397
Y002143
Y001889
Y001635
Y003159
Y003413
Y003667
Y003921
X0148615
Y003667
Y003413
Y003159
T03
X00968Y010566
Y01082
Y011074
T04
X0115895Y0007205
X0118435
Y0022445
X0115895
X0120975
X0123515
X0126055
Y0007205
X0123515
X0120975
X012192Y013157
X011938
X0127
X012954
X013462
X013716
X014224
X014478
X014993Y01316
X015247
X01143Y013157
X011176
X010668
X010414
X009906
X009652
T05
X0031635Y00054
X0034175
X0036715
X0039255
X0041795
X0044335
X0046875
X010723Y00971
Y009964
Y010218
Y010472
Y010726
X012913
Y010472
Y010218
Y009964
Y00971
Y009456
X010723Y01098
T06
X01794763Y00926098
Y00951498
Y00976898
Y01002298
Y01027698
Y01053098
Y01078498
X01845563Y01091198
Y01065798
Y01040398
Y01014998
Y00989598
Y00964198
Y00938798
X01794763Y01103898
T07
X00728Y006935
Y007585
T08
X0079675Y0006775
Y0026775
T09
X0086175Y005302
Y005556
Y00581
Y006064
T10
X01358Y010472
X013834
Y010726
X01358
Y01098
X013834
Y011234
X01358
T11
X01847Y00301
X018669
Y00326
X01847
T13
X00051997Y002244
X00077143
Y002498
X00051997
Y002752
X00077143
Y003006
X00051997
X013531Y0014745
X013785
X014039
Y0012205
X013785
X013531
X016503Y0044025
X016757
X01962Y006593
Y006847
X00077146Y006362
X00052
Y006108
X00077146
Y005854
X00052
Y0056
X00077146
Y005346
X00052
Y005092
X00077146
Y004838
X00052
Y004584
X00077146
X00077143Y004022
X00051997
Y003768
X00077143
Y003514
X00051997
Y00326
X00077143
X0011205Y0077525
X0013745
X017373Y00862
X017627
X01962Y008667
Y008413
Y011633
Y011887
Y012826
Y01308
Y013334
X01631718Y0134444
X01606318
X005814Y0133825
X00556
X005306
X005052
X004798
X004544
X00429
X004036
X003782
X003528
X003274
X00302
X002766
X00246882Y01336726
X002258Y0133825
X002004
T14
X019162Y00922263
Y011072
T15
X00232374Y00817
Y00867
Y00917
T16
X01747718Y0130644
T17
X01767718Y0124644
Y0136644
X01889718
Y0124644
T18
X01894Y002533
Y003737
T19
X000635Y0005725
X019431
X019431Y007696
T20
X00054Y01352
M30
